<?xml version="1.0" encoding="UTF-8"?>
<svg xmlns="http://www.w3.org/2000/svg" xmlns:xlink="http://www.w3.org/1999/xlink" width="1143px" height="237px" viewBox="0 0 1143 237" version="1.1">
  <!-- Generator: Sketch 61.2 (89653) - https://sketch.com -->
  <title>Jaegersoft-Logo_Horizontal_Reverse_Trans-BKG</title>
  <desc>Created with Sketch.</desc>
  <defs>
    <polygon id="path-1" points="0.0173333329 0.103999997 62.8893318 0.103999997 62.8893318 176.630662 0.0173333329 116.291997"></polygon>
    <linearGradient x1="50%" y1="100%" x2="50%" y2="0%" id="linearGradient-3">
      <stop stop-color="#FFFFFF" offset="0%"></stop>
      <stop stop-color="#FFFFFF" offset="4.4e-05%"></stop>
      <stop stop-color="#BABBBC" offset="100%"></stop>
    </linearGradient>
    <polygon id="path-4" points="0.0802666647 40.7161323 62.9533318 0.0265333327 62.9533318 135.46533 0.0802666647 75.1266648"></polygon>
    <linearGradient x1="49.9991517%" y1="100%" x2="49.9991517%" y2="9.84454479e-05%" id="linearGradient-6">
      <stop stop-color="#BABBBC" offset="0%"></stop>
      <stop stop-color="#FFFFFF" offset="100%"></stop>
      <stop stop-color="#FFFFFF" offset="100%"></stop>
    </linearGradient>
    <polygon id="path-7" points="0.0879999978 0.0093333331 0.0879999978 60.6373318 89.4226644 60.6373318 29.0839993 0.0093333331"></polygon>
    <linearGradient x1="0%" y1="50.0010996%" x2="99.9998507%" y2="50.0010996%" id="linearGradient-9">
      <stop stop-color="#BABBBC" offset="0%"></stop>
      <stop stop-color="#FFFFFF" offset="100%"></stop>
      <stop stop-color="#FFFFFF" offset="100%"></stop>
    </linearGradient>
  </defs>
  <g id="Page-1" stroke="none" stroke-width="1" fill="none" fill-rule="evenodd">
    <g id="Jaegersoft-Logo_Horizontal_Reverse_Trans-BKG" transform="translate(0.000000, -2.000000)">
      <g id="g10" transform="translate(571.666650, 120.253339) scale(-1, 1) rotate(-180.000000) translate(-571.666650, -120.253339) translate(0.333331, 0.920008)">
        <g id="g12" transform="translate(0.000000, 0.533333)">
          <g id="g14" transform="translate(89.466664, 60.533332)">
            <g id="g16-Clipped">
              <mask id="mask-2" fill="white">
                <use xlink:href="#path-1"></use>
              </mask>
              <g id="path18"></g>
              <g id="g16" mask="url(#mask-2)" fill="url(#linearGradient-3)" fill-rule="nonzero">
                <polyline id="path30" points="0.0173333329 0.103999997 62.8893318 0.103999997 62.8893318 176.630662 0.0173333329 116.291997 0.0173333329 0.103999997"></polyline>
              </g>
            </g>
          </g>
          <g id="g32">
            <g id="g34-Clipped">
              <mask id="mask-5" fill="white">
                <use xlink:href="#path-4"></use>
              </mask>
              <g id="path36"></g>
              <g id="g34" mask="url(#mask-5)" fill="url(#linearGradient-6)" fill-rule="nonzero">
                <polyline id="path48" points="0.0802666647 40.7161323 62.9533318 0.0265333327 62.9533318 135.46533 0.0802666647 75.1266648 0.0802666647 40.7161323"></polyline>
              </g>
            </g>
          </g>
          <g id="g50" transform="translate(62.933332, 0.000000)">
            <g id="g52-Clipped">
              <mask id="mask-8" fill="white">
                <use xlink:href="#path-7"></use>
              </mask>
              <g id="path54"></g>
              <g id="g52" mask="url(#mask-8)" fill="url(#linearGradient-9)" fill-rule="nonzero">
                <polyline id="path66" points="0.0879999978 0.0093333331 0.0879999978 60.6373318 89.4226644 60.6373318 29.0839993 0.0093333331 0.0879999978 0.0093333331"></polyline>
              </g>
            </g>
          </g>
          <path d="M285.377326,157.559996 L300.450659,163.531996 L300.450659,105.142664 C300.450659,84.1399982 289.947993,73.6399982 268.94666,73.6399982 L246.541327,73.6399982 C225.537328,73.6399982 215.037328,84.1399982 215.037328,105.142664 L215.037328,118.58533 L229.974661,112.610664 L229.974661,105.142664 C229.974661,92.1079977 236.491994,85.5906645 249.527994,85.5906645 L265.95866,85.5906645 C278.903993,85.5906645 285.377326,92.1079977 285.377326,105.142664 L285.377326,157.559996" id="path68" fill="#FFFFFF" fill-rule="nonzero"></path>
          <path d="M329.509325,106.637331 L368.074657,106.637331 L348.791991,147.64533 L329.509325,106.637331 Z M356.259991,163.531996 L398.21999,73.6399982 L380.566657,79.6146647 L373.506657,94.5519976 L324.078659,94.5519976 L317.153325,79.6146647 L299.363993,73.6399982 L341.322658,163.531996 L356.259991,163.531996" id="path70" fill="#FFFFFF" fill-rule="nonzero"></path>
          <polyline id="path72" fill="#FFFFFF" fill-rule="nonzero" points="482.138655 85.5906645 488.114654 73.6399982 402.701323 73.6399982 402.701323 163.531996 486.619988 163.531996 480.645321 151.583996 417.638656 151.583996 417.638656 124.56133 471.275988 124.56133 471.275988 112.610664 417.638656 112.610664 417.638656 85.5906645 482.138655 85.5906645"></polyline>
          <path d="M561.441319,112.610664 L576.514652,118.58533 L576.514652,73.6399982 L519.482654,73.6399982 C498.478654,73.6399982 487.978654,84.1399982 487.978654,105.142664 L487.978654,132.027997 C487.978654,153.030663 498.478654,163.531996 519.482654,163.531996 L574.885319,163.531996 L568.909319,151.583996 L522.46932,151.583996 C509.433321,151.583996 502.915987,145.066663 502.915987,132.027997 L502.915987,105.142664 C502.915987,92.1079977 509.433321,85.5906645 522.46932,85.5906645 L561.441319,85.5906645 L561.441319,112.610664" id="path74" fill="#FFFFFF" fill-rule="nonzero"></path>
          <polyline id="path76" fill="#FFFFFF" fill-rule="nonzero" points="664.505317 85.5906645 670.481317 73.6399982 585.067985 73.6399982 585.067985 163.531996 668.98665 163.531996 663.011983 151.583996 600.005318 151.583996 600.005318 124.56133 653.641317 124.56133 653.641317 112.610664 600.005318 112.610664 600.005318 85.5906645 664.505317 85.5906645"></polyline>
          <path d="M690.985316,124.28933 L734.166648,124.28933 C737.878648,124.28933 741.045315,125.60133 743.670648,128.227997 C746.297315,130.851997 747.609315,133.998663 747.609315,137.66533 C747.609315,141.331996 746.297315,144.475996 743.670648,147.102663 C741.045315,149.726663 737.878648,151.04133 734.166648,151.04133 L690.985316,151.04133 L690.985316,124.28933 Z M734.574648,112.610664 L767.165314,73.6399982 L744.622648,79.6146647 L717.058649,112.610664 L690.713316,112.610664 L690.713316,79.6146647 L675.775983,73.6399982 L675.775983,163.531996 L737.153315,163.531996 C754.171981,163.531996 762.681314,155.046663 762.681314,138.071997 C762.681314,121.098664 754.171981,112.610664 737.153315,112.610664 L734.574648,112.610664" id="path78" fill="#FFFFFF" fill-rule="nonzero"></path>
          <path d="M834.378646,124.56133 C851.305312,124.56133 859.769312,116.094664 859.769312,99.1679975 C859.769312,82.1466646 851.305312,73.6399982 834.378646,73.6399982 L771.371981,73.6399982 L777.346647,85.5906645 L831.390646,85.5906645 C835.101312,85.5906645 838.270646,86.8999978 840.895979,89.5266644 C843.521312,92.153331 844.834646,95.3426643 844.834646,99.1013309 C844.834646,102.854664 843.521312,106.047997 840.895979,108.674664 C838.270646,111.298664 835.101312,112.610664 831.390646,112.610664 L795.405313,112.610664 C778.383981,112.610664 769.877314,121.098664 769.877314,138.071997 C769.877314,155.046663 778.383981,163.531996 795.405313,163.531996 L856.783979,163.531996 L850.807979,151.583996 L798.394647,151.583996 C794.67998,151.583996 791.48798,150.26933 788.818647,147.64533 C786.149314,145.018663 784.814647,141.82933 784.814647,138.071997 C784.814647,134.314663 786.149314,131.123997 788.818647,128.499997 C791.48798,125.87333 794.67998,124.56133 798.394647,124.56133 L834.378646,124.56133" id="path80" fill="#FFFFFF" fill-rule="nonzero"></path>
          <path d="M943.690643,105.142664 L943.690643,132.16533 C943.690643,145.20133 937.16931,151.718663 924.134644,151.718663 L900.099977,151.718663 C887.153311,151.718663 880.682645,145.20133 880.682645,132.16533 L880.682645,105.142664 C880.682645,92.1079977 887.153311,85.5906645 900.099977,85.5906645 L924.134644,85.5906645 C937.16931,85.5906645 943.690643,92.1079977 943.690643,105.142664 L943.690643,105.142664 Z M927.123977,163.669329 C948.123976,163.669329 958.626643,153.166663 958.626643,132.16533 L958.626643,105.142664 C958.626643,84.1399982 948.123976,73.6399982 927.123977,73.6399982 L897.111978,73.6399982 C876.109311,73.6399982 865.607978,84.1399982 865.607978,105.142664 L865.607978,132.16533 C865.607978,153.166663 876.109311,163.669329 897.111978,163.669329 L927.123977,163.669329" id="path82" fill="#FFFFFF" fill-rule="nonzero"></path>
          <polyline id="path84" fill="#FFFFFF" fill-rule="nonzero" points="967.993309 163.531996 1051.91464 163.531996 1045.93864 151.583996 982.930642 151.583996 982.930642 124.56133 1036.70397 124.56133 1036.70397 112.610664 982.930642 112.610664 982.930642 79.6146647 967.993309 73.6399982 967.993309 163.531996"></polyline>
          <polyline id="path86" fill="#FFFFFF" fill-rule="nonzero" points="1049.19464 163.531996 1142.21197 163.531996 1136.23864 151.583996 1103.24131 151.583996 1103.24131 73.5039982 1088.16931 73.5039982 1088.16931 151.583996 1055.17064 151.583996 1049.19464 163.531996"></polyline>
          <polyline id="path88" fill="#FFFFFF" fill-rule="nonzero" points="185.277329 57.4159986 182.115995 57.4159986 182.115995 179.758662 185.277329 179.758662 185.277329 57.4159986"></polyline>
        </g>
      </g>
    </g>
  </g>
</svg>
